<svg xmlns="http://www.w3.org/2000/svg" width="592" height="296" viewBox="0 0 592 296"><path fill="#49B8CF" d="M74.3 239.4l113.1-113.1h56.6v169.7h-169.7"/><path fill="#C2DFE5" d="M244 126.3h-56.6v56.6m0 0h-56.5v56.5"/><path fill="#71C5D6" d="M130.9 239.4h-56.6v56.6m56.6-56.6l113.1 56.6-56.6-113.1"/><path fill="#9AD2DE" d="M187.4 126.3v56.6h-56.5m0 0v56.5h-56.6m169.7 56.6l-56.6-113.1 56.6-56.6"/><path fill="#C2DFE5" d="M93 211.1c-.4-1.4-1-1.4-1.3 0l-1.4 5.6c-.4 1.4-1.8 2.9-3.3 3.3l-5.6 1.4c-1.4.4-1.4 1 0 1.3l5.6 1.4c1.4.4 2.9 1.8 3.3 3.3l1.4 5.6c.4 1.4 1 1.4 1.3 0l1.4-5.6c.4-1.4 1.8-2.9 3.3-3.3l5.6-1.4c1.4-.4 1.4-1 0-1.3l-5.6-1.4c-1.4-.4-2.9-1.8-3.3-3.3l-1.4-5.6zm124.1-117.8c-.4-1.7-1.1-1.7-1.5 0l-1.6 6.5c-.4 1.7-2.1 3.4-3.8 3.8l-6.5 1.6c-1.7.4-1.7 1.1 0 1.5l6.5 1.6c1.7.4 3.4 2.1 3.8 3.8l1.6 6.5c.4 1.7 1.1 1.7 1.5 0l1.6-6.5c.4-1.7 2.1-3.4 3.8-3.8l6.5-1.6c1.7-.4 1.7-1.1 0-1.5l-6.5-1.6c-1.7-.4-3.4-2.1-3.8-3.8l-1.6-6.5zm-24.4 169.4c-.2-1-.6-1-.9 0l-.9 3.7c-.2 1-1.2 1.9-2.2 2.2l-3.7.9c-1 .2-1 .6 0 .9l3.7.9c1 .2 1.9 1.2 2.2 2.2l.9 3.7c.2 1 .6 1 .9 0l.9-3.7c.2-1 1.2-1.9 2.2-2.2l3.7-.9c1-.2 1-.6 0-.9l-3.7-.9c-1-.2-1.9-1.2-2.2-2.2l-.9-3.7z"/><path fill="#71C5D6" d="M244 56h144v24h-144zm0 80h144v24h-144zm0 40h144v24h-144zm0 40h144v24h-144zm0-120h144v24h-144zm0 160h144v24h-144z"/><path fill="#9AD2DE" d="M256 40h24v256h-24z"/><path fill="#C2DFE5" d="M264 40h8v256h-8z"/><path fill="#9AD2DE" d="M352 40h24v256h-24z"/><path fill="#C2DFE5" d="M360 40h8v256h-8z"/><circle fill="#71C5D6" cx="356" cy="108" r="2"/><circle fill="#71C5D6" cx="276" cy="108" r="2"/><circle fill="#71C5D6" cx="356" cy="68" r="2"/><circle fill="#71C5D6" cx="276" cy="68" r="2"/><circle fill="#71C5D6" cx="356" cy="148" r="2"/><circle fill="#71C5D6" cx="276" cy="148" r="2"/><circle fill="#71C5D6" cx="356" cy="188" r="2"/><circle fill="#71C5D6" cx="276" cy="188" r="2"/><circle fill="#71C5D6" cx="356" cy="228" r="2"/><circle fill="#71C5D6" cx="276" cy="228" r="2"/><circle fill="#71C5D6" cx="356" cy="268" r="2"/><circle fill="#71C5D6" cx="276" cy="268" r="2"/><path fill="#49B8CF" d="M280 56h4v24h-4zm0 40h4v24h-4zm0 40h4v24h-4zm0 40h4v24h-4zm0 40h4v24h-4zm0 40h4v24h-4zm96-200h4v24h-4zm0 40h4v24h-4zm0 40h4v24h-4zm0 40h4v24h-4zm0 40h4v24h-4zm0 40h4v24h-4z"/><path fill="#9AD2DE" d="M532 104h-128c-4.4 0-8 3.6-8 8v16h144v-16c0-4.4-3.6-8-8-8z"/><path fill="#71C5D6" d="M404 256h128c4.4 0 8-3.6 8-8v-120h-144v120c0 4.4 3.6 8 8 8z"/><circle fill="#C2DFE5" cx="408" cy="116" r="4"/><circle fill="#C2DFE5" cx="424" cy="116" r="4"/><circle fill="#C2DFE5" cx="440" cy="116" r="4"/><path fill="#9AD2DE" d="M412 142h40v4h-40zm0 8h56v4h-56zm0 64h40v4h-40zm0 8h80v4h-80zm16-64h96v4h-96zm0 40h80v4h-80zm0 8h56v4h-56zm16-40h40v4h-40zm0 8h32v4h-32zm0 8h48v4h-48zm0 8h16v4h-16zM520 228h48v56h-48z"/><path fill="#C2DFE5" d="M532 232v-16l-24 24h16"/><path fill="#9AD2DE" d="M556 216v16l8 8h16"/><path fill="#49B8CF" d="M564 272l-8 8v16l24-24"/><path fill="#71C5D6" d="M532 280l-8-8h-16l24 24"/><path fill="#C2DFE5" d="M532 216h24v16h-24z"/><path fill="#71C5D6" d="M564 240h16v32h-16z"/><path fill="#49B8CF" d="M532 280h24v16h-24z"/><path fill="#9AD2DE" d="M508 240h16v32h-16zM104 44h48v56h-48z"/><path fill="#C2DFE5" d="M116 48v-16l-24 24h16"/><path fill="#9AD2DE" d="M140 32v16l8 8h16"/><path fill="#49B8CF" d="M148 88l-8 8v16l24-24"/><path fill="#71C5D6" d="M116 96l-8-8h-16l24 24"/><path fill="#C2DFE5" d="M116 32h24v16h-24z"/><path fill="#71C5D6" d="M148 56h16v32h-16z"/><path fill="#49B8CF" d="M116 96h24v16h-24z"/><path fill="#9AD2DE" d="M92 56h16v32h-16z"/><path fill="#71C5D6" d="M6 146h24v24h-24z"/><path fill="#C2DFE5" d="M12 148v-8l-12 12h8"/><path fill="#9AD2DE" d="M24 140v8l4 4h8"/><path fill="#49B8CF" d="M28 164l-4 4v8l12-12"/><path fill="#71C5D6" d="M12 168l-4-4h-8l12 12"/><path fill="#C2DFE5" d="M12 140h12v8h-12z"/><path fill="#71C5D6" d="M28 152h8v12h-8z"/><path fill="#49B8CF" d="M12 168h12v8h-12z"/><path fill="#9AD2DE" d="M0 152h8v12h-8z"/><path fill="#71C5D6" d="M430 6h24v24h-24z"/><path fill="#C2DFE5" d="M436 8v-8l-12 12h8"/><path fill="#9AD2DE" d="M448 0v8l4 4h8"/><path fill="#49B8CF" d="M452 24l-4 4v8l12-12"/><path fill="#71C5D6" d="M436 28l-4-4h-8l12 12"/><path fill="#C2DFE5" d="M436 0h12v8h-12z"/><path fill="#71C5D6" d="M452 12h8v12h-8z"/><path fill="#49B8CF" d="M436 28h12v8h-12z"/><path fill="#9AD2DE" d="M424 12h8v12h-8z"/><path fill="#C2DFE5" d="M164.4 48.7c-.2-1-.6-1-.9 0l-.9 3.7c-.2 1-1.2 1.9-2.2 2.2l-3.7.9c-1 .2-1 .6 0 .9l3.7.9c1 .2 1.9 1.2 2.2 2.2l.9 3.7c.2 1 .6 1 .9 0l.9-3.7c.2-1 1.2-1.9 2.2-2.2l3.7-.9c1-.2 1-.6 0-.9l-3.7-.9c-1-.2-1.9-1.2-2.2-2.2l-.9-3.7zm344 216c-.2-1-.6-1-.9 0l-.9 3.7c-.2 1-1.2 1.9-2.2 2.2l-3.7.9c-1 .2-1 .6 0 .9l3.7.9c1 .2 1.9 1.2 2.2 2.2l.9 3.7c.2 1 .6 1 .9 0l.9-3.7c.2-1 1.2-1.9 2.2-2.2l3.7-.9c1-.2 1-.6 0-.9l-3.7-.9c-1-.2-1.9-1.2-2.2-2.2l-.9-3.7zm72.3-67.6c-.4-1.4-1-1.4-1.3 0l-1.4 5.6c-.4 1.4-1.8 2.9-3.3 3.3l-5.6 1.4c-1.4.4-1.4 1 0 1.3l5.6 1.4c1.4.4 2.9 1.8 3.3 3.3l1.4 5.6c.4 1.4 1 1.4 1.3 0l1.4-5.6c.4-1.4 1.8-2.9 3.3-3.3l5.6-1.4c1.4-.4 1.4-1 0-1.3l-5.6-1.4c-1.4-.4-2.9-1.8-3.3-3.3l-1.4-5.6zm-492.5-172.7c-.1-.5-.3-.5-.4 0l-.5 1.9c-.1.5-.6 1-1.1 1.1l-1.9.5c-.5.1-.5.3 0 .4l1.9.5c.5.1 1 .6 1.1 1.1l.5 1.9c.1.5.3.5.4 0l.5-1.9c.1-.5.6-1 1.1-1.1l1.9-.5c.5-.1.5-.3 0-.4l-1.9-.5c-.5-.1-1-.6-1.1-1.1l-.5-1.9z"/></svg>
